<?xml version="1.0" encoding="UTF-8" standalone="no"?>
<!DOCTYPE svg PUBLIC "-//W3C//DTD SVG 1.1//EN" "http://www.w3.org/Graphics/SVG/1.1/DTD/svg11.dtd">
<svg width="100%" height="100%" viewBox="0 0 500 500" version="1.1" xmlns="http://www.w3.org/2000/svg" xmlns:xlink="http://www.w3.org/1999/xlink" xml:space="preserve" xmlns:serif="http://www.serif.com/" style="fill-rule:evenodd;clip-rule:evenodd;stroke-linecap:round;stroke-linejoin:round;stroke-miterlimit:1.5;">
    <g transform="matrix(1.24324,0,0,1.31429,-79.4595,-111.429)">
        <path d="M450,187.5C450,139.207 408.552,100 357.5,100L172.5,100C121.448,100 80,139.207 80,187.5L80,362.5C80,410.793 121.448,450 172.5,450L357.5,450C408.552,450 450,410.793 450,362.5L450,187.5Z" style="fill:none;stroke:black;stroke-width:3.26px;"/>
    </g>
    <g transform="matrix(1.12484,0,0,1.18912,-48.0824,-77.0068)">
        <path d="M450,187.5C450,139.207 408.552,100 357.5,100L172.5,100C121.448,100 80,139.207 80,187.5L80,362.5C80,410.793 121.448,450 172.5,450L357.5,450C408.552,450 450,410.793 450,362.5L450,187.5Z" style="fill:none;stroke:black;stroke-width:3.6px;"/>
    </g>
    <g transform="matrix(3.45345,0,0,3.45345,-1114.11,-181.682)">
        <circle cx="395" cy="125" r="15"/>
    </g>
    <g transform="matrix(1.61161,0,0,1.18404,-48.1481,-44.5302)">
        <path d="M230,117.5C230,107.841 224.239,100 217.143,100L152.857,100C145.761,100 140,107.841 140,117.5L140,152.5C140,162.159 145.761,170 152.857,170L217.143,170C224.239,170 230,162.159 230,152.5L230,117.5Z" style="fill:none;stroke:black;stroke-width:2.95px;"/>
    </g>
    <g transform="matrix(4.83483,0,0,4.83483,-1659.76,-354.354)">
        <circle cx="395" cy="125" r="15" style="fill:none;stroke:black;stroke-width:0.86px;"/>
    </g>
    <g transform="matrix(0.23023,0,0,0.103604,176.326,353.604)">
        <path d="M230,117.5C230,107.841 226.471,100 222.125,100L147.875,100C143.529,100 140,107.841 140,117.5L140,152.5C140,162.159 143.529,170 147.875,170L222.125,170C226.471,170 230,162.159 230,152.5L230,117.5Z" style="fill:none;stroke:black;stroke-width:11.67px;"/>
    </g>
    <g transform="matrix(0.23023,0,0,0.103604,207.407,353.604)">
        <path d="M230,117.5C230,107.841 226.471,100 222.125,100L147.875,100C143.529,100 140,107.841 140,117.5L140,152.5C140,162.159 143.529,170 147.875,170L222.125,170C226.471,170 230,162.159 230,152.5L230,117.5Z" style="fill:none;stroke:black;stroke-width:11.67px;"/>
    </g>
    <g transform="matrix(0.23023,0,0,0.103604,238.488,353.604)">
        <path d="M230,117.5C230,107.841 226.471,100 222.125,100L147.875,100C143.529,100 140,107.841 140,117.5L140,152.5C140,162.159 143.529,170 147.875,170L222.125,170C226.471,170 230,162.159 230,152.5L230,117.5Z" style="fill:none;stroke:black;stroke-width:11.67px;"/>
    </g>
    <g transform="matrix(0.23023,0,0,0.103604,176.326,387.793)">
        <path d="M230,117.5C230,107.841 226.471,100 222.125,100L147.875,100C143.529,100 140,107.841 140,117.5L140,152.5C140,162.159 143.529,170 147.875,170L222.125,170C226.471,170 230,162.159 230,152.5L230,117.5Z" style="fill:none;stroke:black;stroke-width:11.67px;"/>
    </g>
    <g transform="matrix(0.23023,0,0,0.103604,207.407,387.793)">
        <path d="M230,117.5C230,107.841 226.471,100 222.125,100L147.875,100C143.529,100 140,107.841 140,117.5L140,152.5C140,162.159 143.529,170 147.875,170L222.125,170C226.471,170 230,162.159 230,152.5L230,117.5Z" style="fill:none;stroke:black;stroke-width:11.67px;"/>
    </g>
    <g transform="matrix(0.23023,0,0,0.103604,238.488,387.793)">
        <path d="M230,117.5C230,107.841 226.471,100 222.125,100L147.875,100C143.529,100 140,107.841 140,117.5L140,152.5C140,162.159 143.529,170 147.875,170L222.125,170C226.471,170 230,162.159 230,152.5L230,117.5Z" style="fill:none;stroke:black;stroke-width:11.67px;"/>
    </g>
    <g transform="matrix(0.23023,0,0,0.103604,160.786,370.698)">
        <path d="M230,117.5C230,107.841 226.471,100 222.125,100L147.875,100C143.529,100 140,107.841 140,117.5L140,152.5C140,162.159 143.529,170 147.875,170L222.125,170C226.471,170 230,162.159 230,152.5L230,117.5Z" style="fill:none;stroke:black;stroke-width:11.67px;"/>
    </g>
    <g transform="matrix(0.23023,0,0,0.103604,191.867,370.698)">
        <path d="M230,117.5C230,107.841 226.471,100 222.125,100L147.875,100C143.529,100 140,107.841 140,117.5L140,152.5C140,162.159 143.529,170 147.875,170L222.125,170C226.471,170 230,162.159 230,152.5L230,117.5Z" style="fill:none;stroke:black;stroke-width:11.67px;"/>
    </g>
    <g transform="matrix(0.23023,0,0,0.103604,222.948,370.698)">
        <path d="M230,117.5C230,107.841 226.471,100 222.125,100L147.875,100C143.529,100 140,107.841 140,117.5L140,152.5C140,162.159 143.529,170 147.875,170L222.125,170C226.471,170 230,162.159 230,152.5L230,117.5Z" style="fill:none;stroke:black;stroke-width:11.67px;"/>
    </g>
    <g transform="matrix(0.23023,0,0,0.103604,254.029,370.698)">
        <path d="M230,117.5C230,107.841 226.471,100 222.125,100L147.875,100C143.529,100 140,107.841 140,117.5L140,152.5C140,162.159 143.529,170 147.875,170L222.125,170C226.471,170 230,162.159 230,152.5L230,117.5Z" style="fill:none;stroke:black;stroke-width:11.67px;"/>
    </g>
</svg>
