<?xml version="1.0" encoding="UTF-8" standalone="no"?>
<!DOCTYPE svg PUBLIC "-//W3C//DTD SVG 1.1//EN" "http://www.w3.org/Graphics/SVG/1.1/DTD/svg11.dtd">
<svg width="100%" height="100%" viewBox="0 0 500 500" version="1.1" xmlns="http://www.w3.org/2000/svg" xmlns:xlink="http://www.w3.org/1999/xlink" xml:space="preserve" xmlns:serif="http://www.serif.com/" style="fill-rule:evenodd;clip-rule:evenodd;stroke-linecap:round;stroke-linejoin:round;stroke-miterlimit:1.5;">
    <g transform="matrix(1.2,0,0,1.26857,-68,-98.8571)">
        <path d="M450,187.5C450,139.207 408.552,100 357.5,100L172.5,100C121.448,100 80,139.207 80,187.5L80,362.5C80,410.793 121.448,450 172.5,450L357.5,450C408.552,450 450,410.793 450,362.5L450,187.5Z" style="fill:none;stroke:black;stroke-width:3.37px;"/>
    </g>
    <g transform="matrix(1.08571,0,0,1.14776,-37.7143,-65.6327)">
        <path d="M450,187.5C450,139.207 408.552,100 357.5,100L172.5,100C121.448,100 80,139.207 80,187.5L80,362.5C80,410.793 121.448,450 172.5,450L357.5,450C408.552,450 450,410.793 450,362.5L450,187.5Z" style="fill:none;stroke:black;stroke-width:3.73px;"/>
    </g>
    <g transform="matrix(18.75,0,0,18.75,25,25)">
        <path d="M12,4C14.194,4 16,5.806 16,8C16,10.194 14.194,12 12,12C9.806,12 8,10.194 8,8C8,5.806 9.806,4 12,4M12,14C16.42,14 20,15.79 20,18L20,20L4,20L4,18C4,15.79 7.58,14 12,14Z" style="fill-rule:nonzero;"/>
    </g>
    <g id="account-outline.svg">
    </g>
</svg>
