<?xml version="1.0" encoding="UTF-8" standalone="no"?>
<!DOCTYPE svg PUBLIC "-//W3C//DTD SVG 1.1//EN" "http://www.w3.org/Graphics/SVG/1.1/DTD/svg11.dtd">
<svg width="100%" height="100%" viewBox="0 0 500 500" version="1.1" xmlns="http://www.w3.org/2000/svg" xmlns:xlink="http://www.w3.org/1999/xlink" xml:space="preserve" xmlns:serif="http://www.serif.com/" style="fill-rule:evenodd;clip-rule:evenodd;stroke-linecap:round;stroke-linejoin:round;stroke-miterlimit:1.5;">
    <g transform="matrix(1.2,0,0,1.26857,-68,-98.8571)">
        <path d="M450,187.5C450,139.207 408.552,100 357.5,100L172.5,100C121.448,100 80,139.207 80,187.5L80,362.5C80,410.793 121.448,450 172.5,450L357.5,450C408.552,450 450,410.793 450,362.5L450,187.5Z" style="fill:none;stroke:black;stroke-width:3.37px;"/>
    </g>
    <g transform="matrix(1.08571,0,0,1.14776,-37.7143,-65.6327)">
        <path d="M450,187.5C450,139.207 408.552,100 357.5,100L172.5,100C121.448,100 80,139.207 80,187.5L80,362.5C80,410.793 121.448,450 172.5,450L357.5,450C408.552,450 450,410.793 450,362.5L450,187.5Z" style="fill:none;stroke:black;stroke-width:3.73px;"/>
    </g>
    <g transform="matrix(1.05714,0,0,1.05714,-14.2857,-2.14286)">
        <circle cx="395" cy="125" r="15"/>
    </g>
    <g transform="matrix(1.05714,0,0,1.05714,-14.2857,49.1429)">
        <circle cx="395" cy="125" r="15"/>
    </g>
</svg>
